:version 1.10
:name ASF
:units
  mass 1
  length 1
  angle deg
:documentation
  ASF file generated by Kaydara
:root
  axis xyz
  order  tx ty tz rx ry rz
  position 0 0 0
  orientation 0 0 0
:bonedata
  begin
    id 1
    name RightUpLegDummy
    direction -0.718183 -0.695806 0.00816078
    length 4.904
    axis 0 0 0 xyz
  end
  begin
    id 2
    name RightUpLeg
    direction -0.0736652 -0.994202 0.0783343
    length 17.4976
    axis -2.72909 -3.00389 -4.00133 xyz
    dof rx ry rz
  end
  begin
    id 3
    name RightLeg
    direction -0.0389037 -0.994596 -0.0962598
    length 16.5821
    axis 3.95836 -18.5909 -4.46993 xyz
    dof rx ry rz
  end
  begin
    id 4
    name RightFoot
    direction -0.311643 -0.412678 0.855906
    length 3.77069
    axis -1.99483 -18.8351 -3.27644 xyz
    dof rx ry rz
  end
  begin
    id 5
    name RightToes
    direction -0.317852 0.0389852 0.947339
    length 3.85082
    axis -2.00228 -18.1713 -3.25211 xyz
    dof rx ry rz
  end
  begin
    id 6
    name SpineDummy
    direction 8.3039e-015 1 4.44677e-016
    length 4.6813
    axis 0 0 0 xyz
  end
  begin
    id 7
    name Spine
    direction -0.000262373 0.999988 0.00493267
    length 10.1015
    axis -0.00246081 0.00062579 0.0150362 xyz
    dof rx ry rz
  end
  begin
    id 8
    name Spine1
    direction 0 0 0
    length 0
    axis -0.00349562 0.000650293 0.0196666 xyz
    dof rx ry rz
  end
  begin
    id 9
    name HEadDummy
    direction -0.000343232 0.999999 0.00123745
    length 3.43865
    axis -0.00349562 0.000650293 0.0196666 xyz
  end
  begin
    id 10
    name HEad
    direction -0.0461221 0.980933 0.188796
    length 5.12695
    axis -0.00351404 -7.04812 0.0199272 xyz
    dof rx ry rz
  end
  begin
    id 11
    name LeftShoulder1Dummy
    direction 0.998904 -0.0399089 -0.0244534
    length 3.5433
    axis -0.00349562 0.000650293 0.0196666 xyz
  end
  begin
    id 12
    name LeftShoulder1
    direction 0.99951 1.64443e-005 0.0312999
    length 4.05031
    axis -0.00349562 0.000650293 0.0196666 xyz
    dof rx ry rz
  end
  begin
    id 13
    name LeftArm
    direction 0.984791 0.0515299 0.165927
    length 12.9126
    axis -64.823 -10.7743 5.20463 xyz
    dof rx ry rz
  end
  begin
    id 14
    name LeftForeArm
    direction 0.984968 0.0534808 0.16425
    length 10.8596
    axis -30.0462 -7.70601 1.87451 xyz
    dof rx ry rz
  end
  begin
    id 15
    name LeftHand
    direction 0.975871 0.0289682 0.216418
    length 6.62295
    axis -20.1348 -6.98077 1.86072 xyz
    dof rx ry rz
  end
  begin
    id 16
    name RightShoulderDummy
    direction -0.998877 -0.0405946 -0.0244307
    length 3.5433
    axis -0.00349562 0.000650293 0.0196666 xyz
  end
  begin
    id 17
    name RightShoulder
    direction -0.998933 -0.0249743 -0.0388558
    length 4.05031
    axis -0.0205316 -4.02113 1.41395 xyz
    dof rx ry rz
  end
  begin
    id 18
    name RightArm
    direction -0.997559 0.068664 0.0127103
    length 12.9638
    axis -67.3882 1.84188 -6.15987 xyz
    dof rx ry rz
  end
  begin
    id 19
    name RightForeArm
    direction -0.991508 0.0912848 0.0926241
    length 10.8312
    axis -22.1975 3.41087 -4.28711 xyz
    dof rx ry rz
  end
  begin
    id 20
    name RightHand
    direction -0.989262 0.0600788 0.133232
    length 6.57864
    axis -12.2911 2.17515 -4.39675 xyz
    dof rx ry rz
  end
  begin
    id 21
    name LeftUpLegDummy
    direction 0.718183 -0.695806 0.00816078
    length 4.904
    axis 0 0 0 xyz
  end
  begin
    id 22
    name LeftUpLeg
    direction 0.0831398 -0.99469 0.0606531
    length 17.4976
    axis -1.71016 2.29552 4.63832 xyz
    dof rx ry rz
  end
  begin
    id 23
    name LeftLeg
    direction 0.0498442 -0.991778 -0.117862
    length 16.5821
    axis 5.13757 15.5727 5.13348 xyz
    dof rx ry rz
  end
  begin
    id 24
    name LeftFoot
    direction 0.269026 -0.433896 0.85986
    length 3.77069
    axis -0.576502 15.6961 4.10267 xyz
    dof rx ry rz
  end
  begin
    id 25
    name LeftToes
    direction 0.277311 0.0251143 0.960452
    length 3.85048
    axis -0.576502 15.6961 4.10267 xyz
    dof rx ry rz
  end
:hierarchy
  begin
    root RightUpLegDummy SpineDummy LeftUpLegDummy
    RightUpLegDummy RightUpLeg
    RightUpLeg RightLeg
    RightLeg RightFoot
    RightFoot RightToes
    SpineDummy Spine
    Spine Spine1
    Spine1 HEadDummy LeftShoulder1Dummy RightShoulderDummy
    HEadDummy HEad
    LeftShoulder1Dummy LeftShoulder1
    LeftShoulder1 LeftArm
    LeftArm LeftForeArm
    LeftForeArm LeftHand
    RightShoulderDummy RightShoulder
    RightShoulder RightArm
    RightArm RightForeArm
    RightForeArm RightHand
    LeftUpLegDummy LeftUpLeg
    LeftUpLeg LeftLeg
    LeftLeg LeftFoot
    LeftFoot LeftToes
  end

:SAMPLES-PER-SECOND 30
:FULLY-SPECIFIED
:DEGREES
136
root  -0.882737 5.94609 15.587 -48.5104 -6.56721 1.31589
RightUpLeg  -86.8801 -5.74542 3.04714
RightLeg  91.8534 16.8238 -11.0068
RightFoot  30.6359 3.1371 -8.09731
RightToes  5.82077e-011 -3.18055e-015 -2.98177e-016
Spine  32.3859 3.4393 3.15552
Spine1  16.0425 2.9145 -2.17323
HEad  -12.3644 -5.0064 4.88257
LeftShoulder1  -3.88251e-019 9.70628e-020 -3.87848e-018
LeftArm  -24.0102 77.7861 -64.7203
LeftForeArm  21.1017 -0.578562 -1.79998
LeftHand  -14.5858 -12.1609 81.9521
RightShoulder  4.15005 9.30425 19.3932
RightArm  24.6495 -46.6214 -5.23806
RightForeArm  -12.0053 35.0362 -18.6876
RightHand  -7.02146 7.41741 -57.8612
LeftUpLeg  -87.2165 7.42027 3.78113
LeftLeg  93.0789 -14.8718 12.6851
LeftFoot  32.095 -1.67638 4.25119
LeftToes  5.91571e-011 -3.44359e-011 -3.93244e-011
137
root  -0.902361 5.86972 15.5646 -49.4164 -6.08518 1.56805
RightUpLeg  -86.3673 -5.78758 2.31889
RightLeg  92.0653 16.8339 -10.7696
RightFoot  31.2634 3.13273 -7.96747
RightToes  5.82077e-011 -3.18055e-015 -2.98177e-016
Spine  33.1645 3.33586 2.47319
Spine1  16.1772 2.54015 -2.16781
HEad  -12.562 -3.86816 4.6052
LeftShoulder1  -3.88251e-019 9.70628e-020 -3.87848e-018
LeftArm  -23.6771 78.1101 -63.9573
LeftForeArm  20.3645 -0.566781 -1.80444
LeftHand  -14.9361 -12.1173 83.4668
RightShoulder  4.06356 9.19746 19.0557
RightArm  19.4515 -43.9841 -6.93518
RightForeArm  -14.228 39.8441 -21.9581
RightHand  -7.11119 7.45286 -58.3337
LeftUpLeg  -86.4053 7.19726 3.33722
LeftLeg  93.0214 -14.8944 12.9383
LeftFoot  31.9333 -1.69313 4.30736
LeftToes  5.91571e-011 -3.44359e-011 -3.93244e-011
138
root  -0.926742 5.78565 15.5328 -50.5368 -5.54499 1.9905
RightUpLeg  -85.7132 -5.71123 1.32929
RightLeg  92.3272 16.8314 -10.3665
RightFoot  31.9416 3.07782 -7.70998
RightToes  5.82077e-011 -3.18055e-015 -2.98177e-016
Spine  33.9776 3.36497 1.66124
Spine1  16.7332 2.18292 -1.82578
HEad  -13.5011 -2.50366 3.92096
LeftShoulder1  -3.88251e-019 9.70628e-020 -3.87848e-018
LeftArm  -23.8214 78.3507 -63.8824
LeftForeArm  19.7701 -0.565663 -1.85032
LeftHand  -14.9966 -11.9752 84.1774
RightShoulder  4.00997 9.0532 18.9761
RightArm  13.1649 -41.5451 -6.7577
RightForeArm  -14.5015 42.2955 -23.8881
RightHand  -7.5481 7.78315 -60.038
LeftUpLeg  -85.3569 7.05876 2.76549
LeftLeg  93.0411 -14.9049 12.9868
LeftFoot  31.5029 -1.66803 4.28879
LeftToes  5.91571e-011 -3.44359e-011 -3.93244e-011
139
root  -0.955627 5.74221 15.4979 -51.1484 -5.29387 2.29344
RightUpLeg  -85.315 -5.48259 0.78104
RightLeg  92.3808 16.8165 -10.1677
RightFoot  32.372 3.05864 -7.58809
RightToes  5.82077e-011 -3.18055e-015 -2.98177e-016
Spine  34.3811 3.34115 1.29413
Spine1  17.2697 2.04346 -1.74498
HEad  -14.4198 -1.47033 3.1216
LeftShoulder1  -3.88251e-019 9.70628e-020 -3.87848e-018
LeftArm  -23.7644 78.5039 -63.8596
LeftForeArm  19.7378 -0.565255 -1.8509
LeftHand  -14.69 -11.9748 82.9863
RightShoulder  3.97045 8.92326 18.9568
RightArm  7.54939 -40.6618 -5.74938
RightForeArm  -16.3437 43.8511 -25.115
RightHand  -7.71463 7.64132 -61.6795
LeftUpLeg  -84.7339 7.20908 2.45323
LeftLeg  93.0184 -14.8886 12.9043
LeftFoot  31.1859 -1.59767 4.14781
LeftToes  5.91571e-011 -3.44359e-011 -3.93244e-011
140
root  -0.988159 5.73125 15.4746 -51.291 -5.18469 2.49407
RightUpLeg  -85.2392 -5.29302 0.599076
RightLeg  92.3289 16.8124 -10.2062
RightFoot  32.5591 3.07634 -7.59739
RightToes  5.82077e-011 -3.18055e-015 -2.98177e-016
Spine  34.4512 3.24527 1.27046
Spine1  17.5884 2.05702 -1.95684
HEad  -14.485 -1.05711 2.39668
LeftShoulder1  -3.88251e-019 9.70628e-020 -3.87848e-018
LeftArm  -23.497 78.447 -63.6363
LeftForeArm  20.0846 -0.551699 -1.75076
LeftHand  -14.4166 -12.1409 81.3559
RightShoulder  3.99548 8.91629 19.1216
RightArm  4.25713 -41.6542 -4.76855
RightForeArm  -19.5539 44.7218 -25.7031
RightHand  -7.48941 7.14728 -62.1133
LeftUpLeg  -84.5359 7.46091 2.24713
LeftLeg  92.91 -14.8718 12.9488
LeftFoot  31.1009 -1.56499 4.07552
LeftToes  5.91571e-011 -3.44359e-011 -3.93244e-011
141
root  -1.02328 5.73736 15.4731 -51.2519 -5.0098 2.67893
RightUpLeg  -85.3143 -5.2634 0.461734
RightLeg  92.3745 16.8269 -10.267
RightFoot  32.4575 3.10027 -7.67186
RightToes  5.82077e-011 -3.18055e-015 -2.98177e-016
Spine  34.3646 3.20294 1.26516
Spine1  17.8554 2.09253 -2.03659
HEad  -13.9528 -1.16104 1.55195
LeftShoulder1  -3.88251e-019 9.70628e-020 -3.87848e-018
LeftArm  -23.5076 78.0681 -63.6033
LeftForeArm  20.1638 -0.532493 -1.64441
LeftHand  -14.4333 -12.1429 81.4124
RightShoulder  4.19443 9.09717 20.0112
RightArm  3.34081 -43.4549 -4.2347
RightForeArm  -20.665 44.1596 -25.1149
RightHand  -7.25887 6.89044 -61.5734
LeftUpLeg  -84.5091 7.63633 1.94384
LeftLeg  92.8169 -14.8652 13.0459
LeftFoot  31.0679 -1.59693 4.1573
LeftToes  5.91571e-011 -3.44359e-011 -3.93244e-011
142
root  -1.06559 5.75575 15.4866 -51.2396 -4.61268 2.9299
RightUpLeg  -85.3158 -5.38954 0.130898
RightLeg  92.5727 16.8655 -10.318
RightFoot  31.8652 3.14329 -7.88152
RightToes  5.82077e-011 -3.18055e-015 -2.98177e-016
Spine  34.3068 3.25238 1.00552
Spine1  18.2278 2.07084 -1.76827
HEad  -13.6072 -1.44179 0.260495
LeftShoulder1  -3.88251e-019 9.70628e-020 -3.87848e-018
LeftArm  -23.7624 77.5527 -63.9324
LeftForeArm  19.7094 -0.537883 -1.71149
LeftHand  -14.5302 -11.8321 82.8456
RightShoulder  4.59249 9.39417 21.8476
RightArm  4.06471 -45.271 -4.11507
RightForeArm  -18.4422 41.9505 -23.3563
RightHand  -7.18982 7.03912 -60.4969
LeftUpLeg  -84.4161 7.68614 1.43666
LeftLeg  92.78 -14.8536 13.0157
LeftFoot  30.942 -1.61575 4.21589
LeftToes  5.91571e-011 -3.44359e-011 -3.93244e-011
143
root  -1.10815 5.78425 15.5229 -50.9801 -4.21033 3.08219
RightUpLeg  -85.5193 -5.59775 -0.101633
RightLeg  92.7995 16.9227 -10.4765
RightFoot  31.0415 3.18928 -8.14703
RightToes  5.82077e-011 -3.18055e-015 -2.98177e-016
Spine  33.9754 3.19843 0.852505
Spine1  18.7405 2.00164 -1.50385
HEad  -13.6169 -1.46369 -1.31972
LeftShoulder1  -3.88251e-019 9.70628e-020 -3.87848e-018
LeftArm  -24.0666 77.1606 -64.3968
LeftForeArm  19.2246 -0.563693 -1.88649
LeftHand  -14.4223 -11.4631 83.6864
RightShoulder  5.00752 9.63044 23.8221
RightArm  6.23117 -47.7889 -3.89784
RightForeArm  -15.1592 38.7499 -21.0718
RightHand  -7.08909 7.32555 -58.6704
LeftUpLeg  -84.6237 7.68622 1.00255
LeftLeg  92.8343 -14.85 12.8996
LeftFoot  30.7945 -1.56556 4.10595
LeftToes  5.91571e-011 -3.44359e-011 -3.93244e-011
144
root  -1.13311 5.80988 15.5819 -50.3688 -4.01327 2.9815
RightUpLeg  -86.1378 -5.86852 -0.0387776
RightLeg  92.9738 16.9708 -10.6218
RightFoot  30.6651 3.1811 -8.20019
RightToes  5.82077e-011 -3.18055e-015 -2.98177e-016
Spine  33.1884 2.92808 1.21522
Spine1  19.3365 1.88364 -1.46682
HEad  -13.6311 -0.911373 -2.65615
LeftShoulder1  -3.88251e-019 9.70628e-020 -3.87848e-018
LeftArm  -24.6365 76.8355 -64.9201
LeftForeArm  19.2883 -0.56584 -1.89215
LeftHand  -14.1064 -11.2168 83.2764
RightShoulder  5.21178 9.69206 24.8683
RightArm  9.53791 -51.9011 -2.88035
RightForeArm  -11.6362 34.4913 -18.3291
RightHand  -6.66483 7.25496 -55.9406
LeftUpLeg  -85.3307 7.6299 0.860099
LeftLeg  92.9659 -14.8751 12.8755
LeftFoot  30.7485 -1.49303 3.93034
LeftToes  5.91571e-011 -3.44359e-011 -3.93244e-011
145
root  -1.14044 5.81959 15.6187 -49.9929 -3.773 2.90555
RightUpLeg  -86.5814 -6.14514 -0.140366
RightLeg  93.0944 16.994 -10.6405
RightFoot  30.6728 3.16314 -8.15439
RightToes  5.82077e-011 -3.18055e-015 -2.98177e-016
Spine  32.5887 2.69772 1.63775
Spine1  19.8161 1.65186 -1.15636
HEad  -13.5495 0.204452 -3.73529
LeftShoulder1  -3.88251e-019 9.70628e-020 -3.87848e-018
LeftArm  -25.6488 76.4151 -65.8219
LeftForeArm  19.8095 -0.548082 -1.75578
LeftHand  -13.7845 -11.0638 82.4961
RightShoulder  5.27707 9.66441 25.2904
RightArm  12.3483 -56.9058 -0.871773
RightForeArm  -6.70729 28.0518 -14.7404
RightHand  -6.07365 6.6506 -53.9064
LeftUpLeg  -85.7744 7.45263 0.66406
LeftLeg  92.9873 -14.8964 12.9971
LeftFoot  30.8088 -1.47176 3.87206
LeftToes  5.91571e-011 -3.44359e-011 -3.93244e-011
146
root  -1.14542 5.82061 15.6275 -49.9279 -3.49251 2.95839
RightUpLeg  -86.7089 -6.32784 -0.410443
RightLeg  93.1536 17.0053 -10.6479
RightFoot  30.8078 3.17991 -8.16957
RightToes  5.82077e-011 -3.18055e-015 -2.98177e-016
Spine  32.2956 2.67227 1.81276
Spine1  20.141 1.27113 -0.0830138
HEad  -13.6897 1.74417 -5.09043
LeftShoulder1  -3.88251e-019 9.70628e-020 -3.87848e-018
LeftArm  -27.1749 76.007 -67.6074
LeftForeArm  20.3635 -0.566925 -1.80529
LeftHand  -13.6572 -11.0656 81.9578
RightShoulder  5.51163 9.75429 26.4323
RightArm  12.3294 -61.1969 1.08609
RightForeArm  -2.8739 20.6503 -11.2042
RightHand  -5.94806 6.07974 -55.15
LeftUpLeg  -85.7955 7.25837 0.374365
LeftLeg  92.8846 -14.8895 13.1087
LeftFoot  30.9473 -1.514 3.964
LeftToes  5.91571e-011 -3.44359e-011 -3.93244e-011
147
root  -1.14989 5.81627 15.6201 -49.9961 -3.3556 3.04153
RightUpLeg  -86.6801 -6.37627 -0.585905
RightLeg  93.1419 17.0105 -10.7013
RightFoot  30.9473 3.18119 -8.14574
RightToes  5.82077e-011 -3.18055e-015 -2.98177e-016
Spine  32.0579 2.66244 1.86176
Spine1  20.5621 0.753449 1.37458
HEad  -14.3264 3.818 -6.51022
LeftShoulder1  -3.88251e-019 9.70628e-020 -3.87848e-018
LeftArm  -29.4051 75.8041 -70.315
LeftForeArm  20.8029 -0.627097 -2.07844
LeftHand  -13.7465 -11.3472 81.3383
RightShoulder  5.95308 9.98998 28.4063
RightArm  10.135 -64.1045 0.887431
RightForeArm  -3.77412 17.0263 -9.72244
RightHand  -6.47016 6.01666 -59.4456
LeftUpLeg  -85.6411 7.11677 0.234035
LeftLeg  92.7393 -14.8668 13.174
LeftFoot  31.1807 -1.57829 4.10061
LeftToes  5.91571e-011 -3.44359e-011 -3.93244e-011
